<svg aria-hidden="true" style="position: absolute; width: 0; height: 0; overflow: hidden;" version="1.1" xmlns="http://www.w3.org/2000/svg" xmlns:xlink="http://www.w3.org/1999/xlink">
<defs>
<symbol id="icon-facebook" viewBox="0 0 32 32">
<path d="M27.313 0h-22.625c-2.584 0-4.688 2.103-4.688 4.688v22.625c0 2.584 2.103 4.688 4.688 4.688h9.438v-11.313h-3.75v-5.625h3.75v-3.813c0-3.102 2.523-5.625 5.625-5.625h5.688v5.625h-5.688v3.813h5.688l-0.938 5.625h-4.75v11.313h7.563c2.584 0 4.688-2.103 4.688-4.688v-22.625c0-2.584-2.103-4.688-4.688-4.688z"></path>
</symbol>
<symbol id="icon-instagram" viewBox="0 0 32 32">
<path d="M16 9.5c-3.619 0-6.563 2.944-6.563 6.563s2.944 6.563 6.563 6.563 6.563-2.944 6.563-6.563-2.944-6.563-6.563-6.563zM16 9.5c-3.619 0-6.563 2.944-6.563 6.563s2.944 6.563 6.563 6.563 6.563-2.944 6.563-6.563-2.944-6.563-6.563-6.563zM27.313 0h-22.625c-2.587 0-4.688 2.1-4.688 4.688v22.625c0 2.587 2.1 4.688 4.688 4.688h22.625c2.587 0 4.688-2.1 4.688-4.688v-22.625c0-2.587-2.1-4.688-4.688-4.688zM16 24.5c-4.65 0-8.438-3.788-8.438-8.438s3.788-8.438 8.438-8.438 8.438 3.787 8.438 8.438c0 4.65-3.788 8.438-8.438 8.438zM26.313 7.625c-1.031 0-1.875-0.844-1.875-1.875s0.844-1.875 1.875-1.875 1.875 0.844 1.875 1.875-0.844 1.875-1.875 1.875zM16 9.5c-3.619 0-6.563 2.944-6.563 6.563s2.944 6.563 6.563 6.563 6.563-2.944 6.563-6.563-2.944-6.563-6.563-6.563zM16 9.5c-3.619 0-6.563 2.944-6.563 6.563s2.944 6.563 6.563 6.563 6.563-2.944 6.563-6.563-2.944-6.563-6.563-6.563zM16 9.5c-3.619 0-6.563 2.944-6.563 6.563s2.944 6.563 6.563 6.563 6.563-2.944 6.563-6.563-2.944-6.563-6.563-6.563z"></path>
</symbol>

    <symbol id="school" xmlns="http://www.w3.org/2000/svg" viewBox="0 0 496.158 496.158">
      <path d="M496.158 158.739L248.079 52.419 0 158.739l38.079 16.319v151.261c-17.459 6.192-30 22.865-30 42.42v75h90v-75c0-19.555-12.541-36.228-30-42.42V187.915l45 19.286v110.808l135 67.5 135-67.5V207.202zm-428.079 255h-30v-45c0-8.272 6.728-15 15-15s15 6.728 15 15zm180-328.681L420 158.739 248.079 232.42 76.158 158.739zm105 214.41l-105 52.5-105-52.5v-79.41l105 45 105-45z"></path>
    </symbol>

    <symbol xmlns="http://www.w3.org/2000/svg" viewBox="0 0 512 512" id="kindergarten">
      <path d="M495 481V1H17v480H0v30h64v-30H47V31h50v290H81v94h158v-94h-16V31h66v290h-16v94h158v-94h-16V31h50v450h-17v30h64v-30zM193 321h-66V31h66zm192 0h-66V31h66z"></path>
    </symbol>

    <symbol xmlns="http://www.w3.org/2000/svg" viewBox="0 0 512 512" id="shopping">
      <path d="M509.936 161.914a10.002 10.002 0 00-7.965-3.953h-43.943V10c0-5.523-4.477-10-10-10h-138c-5.523 0-10 4.477-10 10v67.96h-88c-5.523 0-10 4.477-10 10v70h-56.161l-23.604-77.305C118.126 67.104 105.827 58 91.659 58h-81.63c-5.523 0-10 4.477-10 10v44c0 5.523 4.477 10 10 10h57.943l94.452 309.345C166.561 444.896 178.86 454 193.028 454h5.752a38.747 38.747 0 00-4.959 19c0 21.505 17.495 39 39 39s39-17.495 39-39a38.747 38.747 0 00-4.959-19h92.029a38.747 38.747 0 00-4.959 19c0 21.505 17.495 39 39 39s39-17.495 39-39a38.747 38.747 0 00-4.959-19h21.055c5.523 0 10-4.477 10-10v-44c0-5.523-4.477-10-10-10H216.716l-8.561-28.04h242.483a10 10 0 009.632-7.313l51.333-184a9.995 9.995 0 00-1.667-8.733zM320.028 20h118v137.96h-68v-70c0-5.523-4.477-10-10-10h-40zm60.167 194.5c5.523 0 10-4.477 10-10v-5.349l11.196 11.208v78.309H359v-78.303l11.195-11.183v5.318c0 5.523 4.477 10 10 10zM222.028 97.96h128v60h-128zM251.821 473c0 10.477-8.523 19-19 19s-19-8.523-19-19 8.523-19 19-19 19 8.523 19 19zm160.111 0c0 10.477-8.523 19-19 19s-19-8.523-19-19 8.523-19 19-19 19 8.523 19 19zm26.096-63v24h-245a11.937 11.937 0 01-11.477-8.496L84.937 109.08a10 10 0 00-9.564-7.08H20.028V78h71.63c5.313 0 9.925 3.415 11.477 8.496L199.75 402.92a10 10 0 009.564 7.08zm5.018-68.04H202.048l-50.074-164H363.14l-18.958 18.938a17.548 17.548 0 00-5.182 12.5V291c0 9.742 7.926 17.668 17.668 17.668h47.055c9.742 0 17.668-7.926 17.668-17.668v-81.606a17.55 17.55 0 00-5.168-12.486l-18.926-18.947H488.8z"></path>
    </symbol>

    <symbol xmlns="http://www.w3.org/2000/svg" viewBox="0 0 504.966 504.966" id="cafe">
      <path d="M297.621 207.261a7.5 7.5 0 00-7.5-7.5H66.834a7.5 7.5 0 00-7.5 7.5c0 89.685 29.948 172.151 80.11 220.597a7.474 7.474 0 005.209 2.105 7.5 7.5 0 005.211-12.895c-22.573-21.801-41.463-52.162-54.628-87.8-12.875-34.854-20.035-74.292-20.828-114.507H290.12a7.5 7.5 0 007.501-7.5zm155.18 231.457H15.873a7.5 7.5 0 00-7.5 7.5c0 32.394 26.354 58.748 58.748 58.748h334.432c32.394 0 58.748-26.354 58.748-58.748a7.5 7.5 0 00-7.5-7.5zm-51.248 51.248H67.121c-21.567 0-39.539-15.685-43.105-36.248h420.642c-3.567 20.563-21.539 36.248-43.105 36.248zm70.744-256.234c-18.166-7.524-44.433-3.806-64.438 7.732a397.678 397.678 0 001.476-34.203 7.5 7.5 0 00-7.5-7.5h-86.712c-4.143 0-7.5 3.358-7.5 7.5s3.357 7.5 7.5 7.5h79.138c-.793 40.214-7.953 79.653-20.828 114.507-13.165 35.639-32.055 66-54.628 87.8a7.5 7.5 0 0010.42 10.79c39.839-38.476 66.908-98.419 76.37-166.385 15.795-14.228 44.142-20.851 60.962-13.882 9.978 4.133 15.037 12.591 15.037 25.14 0 44.478-41.016 67.366-70.964 84.078-18.068 10.083-30.006 16.744-31.43 26.983-.441 3.171.044 7.962 4.856 12.776 1.465 1.464 3.385 2.197 5.304 2.197s3.839-.732 5.304-2.197a7.5 7.5 0 000-10.606 6.095 6.095 0 01-.404-.439c2.152-3.602 14.53-10.509 23.68-15.615 31.321-17.478 78.654-43.892 78.654-97.177 0-18.659-8.629-32.509-24.297-38.999zM34.256 75.454a7.501 7.501 0 006.151-8.641c-2.704-16.06-2.203-32.798 1.431-48.685 41.548-9.522 85.535 2.99 115.742 33.196 28.053 28.053 40.833 67.992 34.885 106.826L83.732 49.419a7.5 7.5 0 00-10.606 0 7.5 7.5 0 000 10.606l108.731 108.731c-38.833 5.948-78.772-6.832-106.825-34.885-12.82-12.82-22.474-27.874-28.692-44.743a7.501 7.501 0 00-14.074 5.188c6.975 18.919 17.795 35.796 32.16 50.161 26.379 26.38 62.124 40.718 98.652 40.718 11.955 0 24.001-1.538 35.821-4.692a7.5 7.5 0 005.313-5.313c12.791-47.934-1.014-99.461-36.026-134.474C133.172 5.705 81.644-8.099 33.711 4.691a7.5 7.5 0 00-5.313 5.313c-5.121 19.191-6.083 39.696-2.784 59.299a7.5 7.5 0 008.642 6.151z"></path>
      <path d="M217.603 78.788c23.052-23.052 56.513-32.74 88.261-25.82 6.921 31.746-2.769 65.208-25.821 88.26-15.995 15.995-37.203 25.834-59.719 27.705a7.5 7.5 0 101.242 14.948c26.048-2.164 50.582-13.545 69.084-32.046 27.862-27.863 38.849-68.867 28.67-107.011a7.5 7.5 0 00-5.312-5.313c-38.142-10.176-79.147.807-107.011 28.67a7.5 7.5 0 000 10.606 7.498 7.498 0 0010.606.001z"></path>
      <path d="M222.915 143.417a7.474 7.474 0 005.303-2.197l55.61-55.609a7.5 7.5 0 00-10.607-10.606l-55.609 55.609a7.5 7.5 0 000 10.606 7.472 7.472 0 005.303 2.197z"></path>
    </symbol>

    <symbol xmlns="http://www.w3.org/2000/svg" viewBox="0 0 512 512" id="beauty">
      <path d="M40 248a7.966 7.966 0 00.07 1.058l30.149 226.114A24.074 24.074 0 0094.008 496H432a24.027 24.027 0 0024-24v-31.47l31.93-239.472c0-.035 0-.069.008-.1.019-.162.029-.326.039-.491.007-.12.016-.239.018-.359V168a8 8 0 00-8-8H320a8 8 0 00-8 8v32.1c0 .12.011.239.018.359.01.165.02.329.039.491 0 .034 0 .068.008.1l14.749 110.615c-16.084-1.222-21.056-5.575-22.512-7.616a5.983 5.983 0 01-.861-5.118 7.641 7.641 0 00-.6-7.417A7.971 7.971 0 00296 288c-15.917 0-28.185 3.1-38.29 7.706l6.22-46.648A7.966 7.966 0 00264 248a104.111 104.111 0 00-56.755-92.635 7.986 7.986 0 00.646-4.68l-8-48A8 8 0 00192 96h-8V64h56a8 8 0 008-8V24a8 8 0 00-8.532-7.982l-120 8a8 8 0 00-7.057 5.452l-8 24A8 8 0 00112 64h8v32h-8a8 8 0 00-7.891 6.685l-8 48a7.986 7.986 0 00.646 4.68A104.111 104.111 0 0040 248zm328 232H174.967a6.974 6.974 0 01-6.967-6.967v-82.066a6.974 6.974 0 016.967-6.967h194.066a6.974 6.974 0 016.967 6.967v82.066a6.974 6.974 0 01-6.967 6.967zM192 352h160v16H192zm248 120a8.009 8.009 0 01-8 8h-41.083a22.9 22.9 0 001.083-6.967V448h48zm1-40h-49v-41.033A22.993 22.993 0 00369.033 368H368v-24c0-.224-.015-.444-.033-.664 0-.031-.008-.088-.013-.138v-.027a41.974 41.974 0 00-4.673-14.982 29.579 29.579 0 00-20.181-15.445L329.137 208h141.726zM328 176h144v16H328zm-37.082 136.823C297.683 322.894 312.85 328 336 328c6 0 10.133 2.369 13.02 7.457.1.181.2.362.292.543H229.021c3.414-2.616 6.665-5.363 9.888-8.09 13.026-11.023 25.406-21.5 48.606-23.549a21.459 21.459 0 003.403 8.462zM125.891 39.625L232 32.551V48H123.1zM136 64h32v32h-32zm-22.556 80l5.333-32h66.446l5.333 32h-77.112zM144 160h16a88.1 88.1 0 0188 87.48l-7.844 58.82c-4.117 3.081-7.91 6.286-11.583 9.394C215.7 326.591 204.579 336 184 336a8 8 0 00-8 8v24h-1.033A22.993 22.993 0 00152 390.967v82.066a22.9 22.9 0 001.083 6.967H94.008a8.026 8.026 0 01-7.93-6.943L56 247.48A88.1 88.1 0 01144 160z"></path>
      <path d="M272 400a32 32 0 1032 32 32.036 32.036 0 00-32-32zm0 48a16 16 0 1116-16 16.019 16.019 0 01-16 16zm128-160c22.8 0 40-10.317 40-24s-17.2-24-40-24-40 10.317-40 24 17.2 24 40 24zm0-32c15.488 0 24 6.009 24 8s-8.512 8-24 8-24-6.009-24-8 8.512-8 24-8zm-296 24h96a8 8 0 008-8v-48a8 8 0 00-8-8h-96a8 8 0 00-8 8v48a8 8 0 008 8zm8-48h80v32h-80z"></path>
    </symbol>

    <symbol xmlns="http://www.w3.org/2000/svg" viewBox="0 0 511.999 511.999" id="sport">
      <path d="M472.612 39.389C443.22 9.996 401.767-3.688 355.895.858c-45.304 4.49-89.581 26.287-124.671 61.377a229.602 229.602 0 00-8.928 9.46 68.493 68.493 0 00-14.051-20.348c-26.841-26.841-70.515-26.84-97.355 0-26.977 26.978-26.84 70.958.411 97.762 11.693 11.503 27.233 18.509 43.599 19.601a69.664 69.664 0 0017.952-1.123c-4.735 22.533-5.048 44.654-1.166 65.231l-.135-.001c-.214 20.572-4.648 77.839-22.359 95.551l-35.934 35.934a18.163 18.163 0 00-4.933-.692 17.983 17.983 0 00-12.801 5.303L39.62 424.816a7.649 7.649 0 0010.817 10.817l55.903-55.903c.715-.715 1.55-.822 1.984-.822s1.265.107 1.979.817l21.979 21.979a2.809 2.809 0 01-.006 3.959l-90.221 90.221a2.806 2.806 0 01-3.967 0L16.12 473.917a2.806 2.806 0 010-3.967l9.222-9.222a7.649 7.649 0 00-10.817-10.817l-9.222 9.222c-7.07 7.07-7.07 18.533 0 25.603l21.968 21.967c3.529 3.529 8.165 5.294 12.801 5.294s9.272-1.764 12.801-5.294l90.221-90.221c4.794-4.794 6.322-11.627 4.605-17.731l35.94-35.94c17.687-17.687 74.972-22.137 95.553-22.359l-.001-.11a154.406 154.406 0 0015.789 2.113c4.455.366 8.932.549 13.435.549 26.3 0 53.256-6.22 79.017-18.265 3.952-1.848 5.616-6.576 3.62-10.456v-.001c-1.87-3.637-6.285-5.187-9.989-3.453-27.791 13.016-56.976 18.672-84.83 16.38-30.384-2.498-57.022-14.395-77.035-34.405-31.823-31.823-42.64-80.579-29.259-130.983a68.915 68.915 0 0018.307-13.121c16.182-16.182 22.591-38.479 19.262-59.52a212.805 212.805 0 0114.535-16.13c32.596-32.596 73.566-52.829 115.362-56.971 41.229-4.086 78.3 8.034 104.391 34.124 54.283 54.293 44.034 152.873-22.846 219.753a211.246 211.246 0 01-26.345 22.371c-3.332 2.386-4.148 6.999-1.884 10.414 2.405 3.627 7.333 4.503 10.87 1.967a226.522 226.522 0 0028.177-23.935c35.091-35.091 56.888-79.365 61.377-124.667 4.544-45.867-9.14-87.32-38.533-116.717zm-350.905 98.495c-8.786-8.788-13.861-19.896-15.25-31.37 11.821 1.424 22.743 6.704 31.326 15.287 8.595 8.595 13.878 19.523 15.297 31.362-11.844-1.421-22.806-6.713-31.373-15.279zm105.524 181.333a131.188 131.188 0 0014.72 8.663c-1.787.224-3.601.465-5.441.727-8.373 1.195-16.037 2.638-22.992 4.322l13.713-13.712zm-18.852-15.594a131.245 131.245 0 006.628 6.182L138.513 386.3l-12.809-12.81 76.503-76.503a129.866 129.866 0 006.172 6.636zm-15.577-18.867l-13.728 13.728c1.683-6.955 3.127-14.618 4.322-22.992.267-1.873.512-3.72.739-5.538a132.105 132.105 0 008.667 14.802zm4.625-146.872c-7.993 7.993-18.072 13.133-29.005 14.943-1.541-15.802-8.403-30.425-19.821-41.844-11.408-11.407-26.01-18.267-41.805-19.812 1.768-10.628 6.728-20.826 14.911-29.008 8.185-8.184 18.383-13.145 29.014-14.912 1.535 15.784 8.389 30.393 19.804 41.807 11.419 11.42 26.025 18.297 41.81 19.832-1.77 10.625-6.729 20.816-14.908 28.994zm-16.084-59.641c-8.591-8.591-13.868-19.507-15.281-31.328 11.473 1.39 22.58 6.463 31.366 15.25 8.786 8.784 13.859 19.891 15.249 31.364-11.829-1.414-22.739-6.69-31.334-15.286z"></path>
      <path d="M446.359 65.645c-21.381-21.381-52.207-31.269-86.804-27.842-36.787 3.644-73.039 21.643-102.078 50.683-29.04 29.039-47.039 65.291-50.683 102.078-3.427 34.596 6.461 65.424 27.842 86.805 18.605 18.605 44.361 28.507 73.531 28.507 4.352 0 8.782-.22 13.274-.666 36.787-3.644 73.039-21.644 102.078-50.683 29.04-29.04 47.039-65.291 50.683-102.078 3.425-34.595-6.462-65.424-27.843-86.804zm-5.684 16.501c6.888 8.426 11.967 18.293 15.111 29.221l-22.167-22.166 7.056-7.055zm-171.667 89.361l30.336-30.336 30.335 30.335-30.336 30.336-30.335-30.335zm19.518 41.153l-30.338 30.338-30.335-30.335 30.338-30.338 30.335 30.335zm21.638-82.309l30.329-30.329 30.335 30.335-30.329 30.329-30.335-30.335zm30.333 51.973l30.332 30.332-30.336 30.336-30.332-30.332 30.336-30.336zm10.82-10.82l30.329-30.329 30.332 30.332-30.329 30.329-30.332-30.332zm41.146-41.147l30.338-30.338 30.332 30.332-30.338 30.338-30.332-30.332zm37.387-59.022l-7.05 7.05-22.14-22.141c10.916 3.145 20.773 8.211 29.19 15.091zm-48.201-12.468l30.335 30.335-30.338 30.338-30.336-30.335 30.339-30.338zm-20.587-5.84c1.743-.172 3.471-.3 5.188-.397l-25.758 25.758-16.307-16.307c12.035-4.75 24.433-7.821 36.877-9.054zm-51.711 15.854l20.324 20.324-30.329 30.329-25.523-25.523c11.008-10.108 22.98-18.551 35.528-25.13zm-46.349 35.951l25.524 25.522-30.336 30.336-20.323-20.322c6.579-12.55 15.025-24.525 25.135-35.536zm-40.986 87.24c1.233-12.442 4.304-24.838 9.052-36.87l16.305 16.305-25.757 25.757c.097-1.718.227-3.448.4-5.192zm18.302 68.795c-6.885-8.423-11.961-18.286-15.107-29.21l22.159 22.159-7.052 7.051zm10.818 10.818l7.052-7.052 22.159 22.159c-10.925-3.145-20.787-8.222-29.211-15.107zm48.201 12.463l-30.332-30.332 30.338-30.338 30.332 30.332-30.338 30.338zm20.594 5.839c-1.745.173-3.478.304-5.198.4l25.76-25.76 16.308 16.308c-12.032 4.749-24.427 7.819-36.87 9.052zm51.705-15.852l-20.325-20.325 30.335-30.336L407.173 249c-11.011 10.11-22.986 18.556-35.537 25.135zm46.356-35.954l-25.526-25.526 30.329-30.329 20.327 20.327c-6.579 12.547-15.023 24.52-25.13 35.528zm40.985-87.24c-1.233 12.445-4.305 24.843-9.054 36.877l-16.31-16.31 25.764-25.764c-.097 1.72-.228 3.452-.4 5.197z"></path>
    </symbol>


  <svg width="0" height="0">
    <symbol xmlns="http://www.w3.org/2000/svg" viewBox="0 0 476.213 476.213" id="right-arrow">
      <path d="M405.606 167.5l-21.212 21.213 34.393 34.393H0v30h418.787L384.394 287.5l21.212 21.213 70.607-70.607z"></path>
    </symbol>
  </svg>


</defs>
</svg>
