<svg style="position: absolute; width: 0; height: 0; overflow: hidden;" version="1.1" xmlns="http://www.w3.org/2000/svg"
     xmlns:xlink="http://www.w3.org/1999/xlink">
  <!--<svg aria-hidden="true" style="position: absolute; width: 0; height: 0; overflow: hidden;" version="1.1" xmlns="http://www.w3.org/2000/svg" xmlns:xlink="http://www.w3.org/1999/xlink">-->
  <defs>

    <symbol id="icon-facebook" viewBox="0 0 32 32">
      <path
        d="M27.313 0h-22.625c-2.584 0-4.688 2.103-4.688 4.688v22.625c0 2.584 2.103 4.688 4.688 4.688h9.438v-11.313h-3.75v-5.625h3.75v-3.813c0-3.102 2.523-5.625 5.625-5.625h5.688v5.625h-5.688v3.813h5.688l-0.938 5.625h-4.75v11.313h7.563c2.584 0 4.688-2.103 4.688-4.688v-22.625c0-2.584-2.103-4.688-4.688-4.688z"></path>
    </symbol>

    <symbol id="icon-instagram" viewBox="0 0 32 32">
      <path
        d="M16 9.5c-3.619 0-6.563 2.944-6.563 6.563s2.944 6.563 6.563 6.563 6.563-2.944 6.563-6.563-2.944-6.563-6.563-6.563zM16 9.5c-3.619 0-6.563 2.944-6.563 6.563s2.944 6.563 6.563 6.563 6.563-2.944 6.563-6.563-2.944-6.563-6.563-6.563zM27.313 0h-22.625c-2.587 0-4.688 2.1-4.688 4.688v22.625c0 2.587 2.1 4.688 4.688 4.688h22.625c2.587 0 4.688-2.1 4.688-4.688v-22.625c0-2.587-2.1-4.688-4.688-4.688zM16 24.5c-4.65 0-8.438-3.788-8.438-8.438s3.788-8.438 8.438-8.438 8.438 3.787 8.438 8.438c0 4.65-3.788 8.438-8.438 8.438zM26.313 7.625c-1.031 0-1.875-0.844-1.875-1.875s0.844-1.875 1.875-1.875 1.875 0.844 1.875 1.875-0.844 1.875-1.875 1.875zM16 9.5c-3.619 0-6.563 2.944-6.563 6.563s2.944 6.563 6.563 6.563 6.563-2.944 6.563-6.563-2.944-6.563-6.563-6.563zM16 9.5c-3.619 0-6.563 2.944-6.563 6.563s2.944 6.563 6.563 6.563 6.563-2.944 6.563-6.563-2.944-6.563-6.563-6.563zM16 9.5c-3.619 0-6.563 2.944-6.563 6.563s2.944 6.563 6.563 6.563 6.563-2.944 6.563-6.563-2.944-6.563-6.563-6.563z"></path>
    </symbol>

    <symbol xmlns="http://www.w3.org/2000/svg" viewBox="0 0 476.213 476.213" id="right-arrow">
      <path
        d="M405.606 167.5l-21.212 21.213 34.393 34.393H0v30h418.787L384.394 287.5l21.212 21.213 70.607-70.607z"></path>
    </symbol>

    <symbol xmlns="http://www.w3.org/2000/svg" viewBox="0 0 512.001 512" id="location">
      <path d="M316 260c-5.52 0-10 4.48-10 10s4.48 10 10 10 10-4.48 10-10-4.48-10-10-10zm0 0"></path>
      <path
        d="M102.168 369.785l-100 126a9.993 9.993 0 00-1.172 10.563A9.997 9.997 0 0010 512h492a9.997 9.997 0 009.004-5.652 9.985 9.985 0 00-1.172-10.563l-100-126A9.996 9.996 0 00402 366h-87.598l74.786-117.297C406.73 222.403 416 191.73 416 160 416 71.777 344.227 0 256 0S96 71.777 96 160c0 31.73 9.27 62.398 26.813 88.703L197.598 366H110c-3.05 0-5.934 1.395-7.832 3.785zM64.832 449h60.465l-34.125 43H30.703zm145.52-63l27.414 43h-71.063l34.129-43zm91.3 0h9.52l34.125 43h-71.059zm59.52 63l34.125 43H116.703l34.129-43zm59.66 43l-34.129-43h60.469l34.125 43zm10.465-63h-60.465l-34.129-43h60.469zm-291.79-191.313C124.13 214.665 116 187.802 116 160c0-77.195 62.805-140 140-140s140 62.805 140 140c0 27.8-8.129 54.664-23.504 77.688-.043.058-.078.117-.117.175C365.812 248.164 261.059 412.47 256 420.398a6717131.891 6717131.891 0 00-116.492-182.71zM175.298 386l-34.125 43h-60.47l34.129-43zm0 0"></path>
      <path
        d="M256 260c54.898 0 100-44.457 100-100 0-55.14-44.86-100-100-100s-100 44.86-100 100c0 55.559 45.117 100 100 100zm0-180c44.113 0 80 35.887 80 80 0 44.523-36.176 80-80 80-43.836 0-80-35.477-80-80 0-44.113 35.887-80 80-80zm42.121 214.125c-4.726-2.852-10.875-1.328-13.726 3.402l-36.961 61.32c-2.852 4.731-1.329 10.876 3.402 13.727 4.75 2.864 10.887 1.309 13.727-3.402l36.96-61.32c2.852-4.73 1.329-10.875-3.402-13.727zm0 0"></path>
    </symbol>

    <symbol xmlns="http://www.w3.org/2000/svg" viewBox="0 0 512.02 512.02" id="social-arrow">
      <path
        d="M511.189 315.875a10.664 10.664 0 00-2.325-3.477l-128-128c-4.237-4.093-10.99-3.975-15.083.262a10.666 10.666 0 000 14.821l109.803 109.803H266.667C131.236 309.13 21.486 199.38 21.333 63.95c0-5.891-4.776-10.667-10.667-10.667S0 58.059 0 63.95c.165 147.208 119.459 266.502 266.667 266.667h208.917L365.803 440.398c-4.237 4.093-4.354 10.846-.261 15.083s10.846 4.354 15.083.261c.089-.086.176-.173.261-.261l128-128a10.667 10.667 0 002.325-11.627l-.022.021z"
        fill="#2196f3"></path>
      <path
        d="M373.333 458.617a10.667 10.667 0 01-7.552-18.219l120.47-120.448-120.47-120.448c-4.093-4.237-3.975-10.99.262-15.083a10.666 10.666 0 0114.821 0l128 128c4.164 4.165 4.164 10.917 0 15.083l-128 128a10.669 10.669 0 01-7.531 3.115z"></path>
      <path
        d="M501.333 330.617H266.667C119.459 330.452.165 211.158 0 63.95c0-5.891 4.776-10.667 10.667-10.667s10.667 4.776 10.667 10.667c.153 135.43 109.903 245.181 245.333 245.333h234.667c5.891 0 10.667 4.776 10.667 10.667-.001 5.891-4.777 10.667-10.668 10.667z"></path>
    </symbol>

  </defs>
</svg>
